<svg width="16" height="20" viewBox="0 0 16 20" fill="none" xmlns="http://www.w3.org/2000/svg">
<rect y="2" width="16" height="16" rx="8" fill="black"/>
<path d="M2.512 9.72C2.464 6.68 5.088 4.2 8.256 4.248C10.192 4.248 11.776 5.08 12.8 6.6L10.88 8.232C10.192 7.272 9.36 6.776 8.208 6.776C6.432 6.776 5.328 7.944 5.328 9.72C5.328 11.528 6.496 12.744 8.368 12.744C9.376 12.744 10.176 12.392 10.688 11.8V11.304H8.224V8.936H13.44V12.264C12.944 13.144 12.24 13.848 11.328 14.392C10.416 14.92 9.392 15.192 8.256 15.192C5.088 15.24 2.464 12.776 2.512 9.72Z" fill="white"/>
</svg>
