<svg width="175" height="35" viewBox="0 0 175 35" fill="none" xmlns="http://www.w3.org/2000/svg">
<path d="M19.908 18.196C20.116 18.196 20.276 18.3 20.388 18.508C20.516 18.7 20.58 18.948 20.58 19.252C20.58 19.62 20.524 19.908 20.412 20.116C20.3 20.324 20.124 20.508 19.884 20.668C18.94 21.292 17.436 22.316 15.372 23.74C14.748 27.052 13.94 29.66 12.948 31.564C11.956 33.468 10.7 34.42 9.18 34.42C8.364 34.42 7.7 34.164 7.188 33.652C6.676 33.156 6.42 32.5 6.42 31.684C6.42 30.932 6.588 30.172 6.924 29.404C7.26 28.636 7.884 27.748 8.796 26.74C9.724 25.732 11.028 24.58 12.708 23.284L12.78 22.828C11.516 23.356 10.276 23.62 9.06 23.62C7.268 23.62 5.692 23.276 4.332 22.588C2.972 21.884 1.916 20.892 1.164 19.612C0.412 18.332 0.0360001 16.844 0.0360001 15.148C0.0360001 12.78 0.484 10.692 1.38 8.884C2.276 7.06 3.508 5.652 5.076 4.66C6.66 3.652 8.428 3.148 10.38 3.148C12.252 3.148 13.652 3.588 14.58 4.468C15.524 5.332 15.996 6.484 15.996 7.924C15.996 8.868 15.82 9.628 15.468 10.204C15.132 10.764 14.644 11.044 14.004 11.044C13.572 11.044 13.22 10.94 12.948 10.732C12.692 10.524 12.564 10.236 12.564 9.868C12.564 9.708 12.596 9.436 12.66 9.052C12.756 8.604 12.804 8.252 12.804 7.996C12.804 7.324 12.596 6.804 12.18 6.436C11.78 6.068 11.1 5.884 10.14 5.884C8.972 5.884 7.884 6.22 6.876 6.892C5.884 7.564 5.084 8.572 4.476 9.916C3.868 11.244 3.564 12.844 3.564 14.716C3.564 16.636 4.084 18.124 5.124 19.18C6.18 20.22 7.7 20.74 9.684 20.74C10.788 20.74 11.94 20.492 13.14 19.996L13.476 17.068H11.028C10.58 17.068 10.236 16.964 9.996 16.756C9.756 16.532 9.636 16.172 9.636 15.676C9.636 15.228 9.756 14.876 9.996 14.62C10.236 14.364 10.556 14.236 10.956 14.236H15.444C15.796 14.236 16.084 14.356 16.308 14.596C16.548 14.82 16.644 15.148 16.596 15.58C16.548 16.092 16.388 17.252 16.116 19.06L15.852 20.884C17.132 19.924 18.3 19.092 19.356 18.388C19.564 18.26 19.748 18.196 19.908 18.196ZM9.444 32.092C9.86 32.092 10.316 31.62 10.812 30.676C11.308 29.732 11.772 28.212 12.204 26.116C10.988 27.156 10.108 28.092 9.564 28.924C9.036 29.772 8.772 30.516 8.772 31.156C8.772 31.78 8.996 32.092 9.444 32.092ZM23.4096 23.62C22.7056 23.62 22.1696 23.428 21.8016 23.044C21.4496 22.66 21.2736 22.156 21.2736 21.532C21.2736 20.812 21.4736 20.236 21.8736 19.804C22.2896 19.372 22.8656 19.156 23.6016 19.156C24.3056 19.156 24.8336 19.332 25.1856 19.684C25.5536 20.02 25.7376 20.524 25.7376 21.196C25.7376 21.932 25.5296 22.524 25.1136 22.972C24.6976 23.404 24.1296 23.62 23.4096 23.62ZM35.0824 23.692C32.9544 23.692 31.2504 23.292 29.9704 22.492C28.6904 21.676 28.0504 20.436 28.0504 18.772C28.0504 17.892 28.2024 17.22 28.5064 16.756C28.8104 16.292 29.2584 16.06 29.8504 16.06C30.2824 16.06 30.6344 16.172 30.9064 16.396C31.1784 16.62 31.3144 16.908 31.3144 17.26C31.3144 17.58 31.2904 17.86 31.2424 18.1C31.2424 18.164 31.2264 18.276 31.1944 18.436C31.1784 18.596 31.1704 18.764 31.1704 18.94C31.1704 19.66 31.5304 20.196 32.2504 20.548C32.9864 20.9 34.0104 21.076 35.3224 21.076C36.6824 21.076 37.7464 20.836 38.5144 20.356C39.2824 19.86 39.6664 19.172 39.6664 18.292C39.6664 17.748 39.4904 17.284 39.1384 16.9C38.7864 16.5 38.3464 16.172 37.8184 15.916C37.2904 15.644 36.5464 15.316 35.5864 14.932C34.3544 14.452 33.3464 13.996 32.5624 13.564C31.7944 13.132 31.1304 12.548 30.5704 11.812C30.0264 11.06 29.7544 10.132 29.7544 9.028C29.7544 7.876 30.0584 6.852 30.6664 5.956C31.2904 5.06 32.1784 4.364 33.3304 3.868C34.4984 3.372 35.8664 3.124 37.4344 3.124C38.6024 3.124 39.6744 3.3 40.6504 3.652C41.6264 3.988 42.4024 4.508 42.9784 5.212C43.5704 5.916 43.8664 6.78 43.8664 7.804C43.8664 8.812 43.7144 9.572 43.4104 10.084C43.1064 10.596 42.6584 10.852 42.0664 10.852C41.6504 10.852 41.2984 10.724 41.0104 10.468C40.7384 10.212 40.6024 9.908 40.6024 9.556C40.6024 9.252 40.6264 8.972 40.6744 8.716C40.7224 8.236 40.7464 7.932 40.7464 7.804C40.7464 7.132 40.4184 6.62 39.7624 6.268C39.1064 5.916 38.2904 5.74 37.3144 5.74C35.9384 5.74 34.8824 5.996 34.1464 6.508C33.4264 7.004 33.0664 7.708 33.0664 8.62C33.0664 9.228 33.2504 9.748 33.6184 10.18C34.0024 10.612 34.4744 10.972 35.0344 11.26C35.5944 11.548 36.3784 11.892 37.3864 12.292C38.6024 12.788 39.5784 13.236 40.3144 13.636C41.0504 14.036 41.6744 14.58 42.1864 15.268C42.7144 15.956 42.9784 16.804 42.9784 17.812C42.9784 19.7 42.2584 21.156 40.8184 22.18C39.3944 23.188 37.4824 23.692 35.0824 23.692ZM58.1126 18.148C58.3206 18.148 58.4806 18.244 58.5926 18.436C58.7206 18.628 58.7846 18.892 58.7846 19.228C58.7846 19.868 58.6326 20.364 58.3286 20.716C57.5926 21.564 56.8326 22.26 56.0486 22.804C55.2806 23.348 54.4006 23.62 53.4086 23.62C52.5926 23.62 51.9766 23.388 51.5606 22.924C51.1446 22.444 50.9366 21.756 50.9366 20.86C50.9366 20.412 51.0486 19.612 51.2726 18.46C51.4806 17.452 51.5846 16.756 51.5846 16.372C51.5846 16.116 51.4966 15.988 51.3206 15.988C51.1126 15.988 50.8166 16.26 50.4326 16.804C50.0486 17.332 49.6646 18.036 49.2806 18.916C48.8966 19.796 48.5846 20.724 48.3446 21.7C48.0406 22.98 47.2886 23.62 46.0886 23.62C45.6086 23.62 45.2886 23.452 45.1286 23.116C44.9846 22.764 44.9126 22.14 44.9126 21.244C44.9126 20.732 44.9206 20.324 44.9366 20.02L44.9606 18.1C44.9606 15.636 45.2086 13.068 45.7046 10.396C46.2166 7.724 46.9606 5.484 47.9366 3.676C48.9286 1.852 50.1126 0.939999 51.4886 0.939999C52.2246 0.939999 52.8166 1.26 53.2646 1.9C53.7286 2.524 53.9606 3.34 53.9606 4.348C53.9606 5.964 53.4886 7.644 52.5446 9.388C51.6006 11.116 50.0646 13.14 47.9366 15.46C47.8886 16.292 47.8646 17.148 47.8646 18.028C48.3926 16.668 48.9766 15.564 49.6166 14.716C50.2726 13.852 50.9126 13.236 51.5366 12.868C52.1766 12.5 52.7606 12.316 53.2886 12.316C54.3286 12.316 54.8486 12.836 54.8486 13.876C54.8486 14.5 54.6726 15.628 54.3206 17.26C54.0166 18.652 53.8646 19.572 53.8646 20.02C53.8646 20.66 54.0966 20.98 54.5606 20.98C54.8806 20.98 55.2566 20.788 55.6886 20.404C56.1366 20.004 56.7286 19.364 57.4646 18.484C57.6566 18.26 57.8726 18.148 58.1126 18.148ZM50.9846 3.316C50.6966 3.316 50.3766 3.732 50.0246 4.564C49.6726 5.38 49.3286 6.492 48.9926 7.9C48.6726 9.292 48.4086 10.812 48.2006 12.46C49.1926 11.292 50.0086 10.02 50.6486 8.644C51.3046 7.268 51.6326 6.02 51.6326 4.9C51.6326 4.388 51.5766 3.996 51.4646 3.724C51.3526 3.452 51.1926 3.316 50.9846 3.316ZM59.7915 23.62C58.7995 23.62 58.0075 23.26 57.4155 22.54C56.8235 21.82 56.5275 20.876 56.5275 19.708C56.5275 18.428 56.8235 17.22 57.4155 16.084C58.0075 14.932 58.7915 14.012 59.7675 13.324C60.7595 12.62 61.8075 12.268 62.9115 12.268C63.2635 12.268 63.4955 12.34 63.6075 12.484C63.7355 12.612 63.8395 12.852 63.9195 13.204C64.2555 13.14 64.6075 13.108 64.9755 13.108C65.7595 13.108 66.1515 13.388 66.1515 13.948C66.1515 14.284 66.0315 15.084 65.7915 16.348C65.4235 18.188 65.2395 19.468 65.2395 20.188C65.2395 20.428 65.2955 20.62 65.4075 20.764C65.5355 20.908 65.6955 20.98 65.8875 20.98C66.1915 20.98 66.5595 20.788 66.9915 20.404C67.4235 20.004 68.0075 19.364 68.7435 18.484C68.9355 18.26 69.1515 18.148 69.3915 18.148C69.5995 18.148 69.7595 18.244 69.8715 18.436C69.9995 18.628 70.0635 18.892 70.0635 19.228C70.0635 19.868 69.9115 20.364 69.6075 20.716C68.9515 21.532 68.2555 22.22 67.5195 22.78C66.7835 23.34 66.0715 23.62 65.3835 23.62C64.8555 23.62 64.3675 23.444 63.9195 23.092C63.4875 22.724 63.1595 22.228 62.9355 21.604C62.1035 22.948 61.0555 23.62 59.7915 23.62ZM60.6555 21.196C61.0075 21.196 61.3435 20.988 61.6635 20.572C61.9835 20.156 62.2155 19.604 62.3595 18.916L63.2475 14.5C62.5755 14.516 61.9515 14.772 61.3755 15.268C60.8155 15.748 60.3675 16.388 60.0315 17.188C59.6955 17.988 59.5275 18.836 59.5275 19.732C59.5275 20.228 59.6235 20.596 59.8155 20.836C60.0235 21.076 60.3035 21.196 60.6555 21.196ZM77.2089 18.148C77.4169 18.148 77.5769 18.244 77.6889 18.436C77.8169 18.628 77.8809 18.892 77.8809 19.228C77.8809 19.868 77.7289 20.364 77.4249 20.716C76.7369 21.564 75.9849 22.26 75.1689 22.804C74.3689 23.348 73.4569 23.62 72.4329 23.62C71.0249 23.62 69.9769 22.98 69.2889 21.7C68.6169 20.42 68.2809 18.764 68.2809 16.732C68.2809 14.78 68.5289 12.556 69.0249 10.06C69.5369 7.564 70.2809 5.42 71.2569 3.628C72.2489 1.836 73.4249 0.939999 74.7849 0.939999C75.5529 0.939999 76.1529 1.3 76.5849 2.02C77.0329 2.724 77.2569 3.74 77.2569 5.068C77.2569 6.972 76.7289 9.18 75.6729 11.692C74.6169 14.204 73.1849 16.692 71.3769 19.156C71.4889 19.812 71.6729 20.284 71.9289 20.572C72.1849 20.844 72.5209 20.98 72.9369 20.98C73.5929 20.98 74.1689 20.796 74.6649 20.428C75.1609 20.044 75.7929 19.396 76.5609 18.484C76.7529 18.26 76.9689 18.148 77.2089 18.148ZM74.2569 3.316C73.8889 3.316 73.4729 3.98 73.0089 5.308C72.5449 6.636 72.1369 8.284 71.7849 10.252C71.4329 12.22 71.2409 14.108 71.2089 15.916C72.3449 14.044 73.2489 12.172 73.9209 10.3C74.5929 8.412 74.9289 6.692 74.9289 5.14C74.9289 3.924 74.7049 3.316 74.2569 3.316ZM78.6587 23.62C77.6667 23.62 76.8747 23.26 76.2827 22.54C75.6907 21.82 75.3947 20.876 75.3947 19.708C75.3947 18.428 75.6907 17.22 76.2827 16.084C76.8747 14.932 77.6587 14.012 78.6347 13.324C79.6267 12.62 80.6747 12.268 81.7787 12.268C82.1307 12.268 82.3627 12.34 82.4747 12.484C82.6027 12.612 82.7067 12.852 82.7867 13.204C83.1227 13.14 83.4747 13.108 83.8427 13.108C84.6267 13.108 85.0187 13.388 85.0187 13.948C85.0187 14.284 84.8987 15.084 84.6587 16.348C84.2907 18.188 84.1067 19.468 84.1067 20.188C84.1067 20.428 84.1627 20.62 84.2747 20.764C84.4027 20.908 84.5627 20.98 84.7547 20.98C85.0587 20.98 85.4267 20.788 85.8587 20.404C86.2907 20.004 86.8747 19.364 87.6107 18.484C87.8027 18.26 88.0187 18.148 88.2587 18.148C88.4667 18.148 88.6267 18.244 88.7387 18.436C88.8667 18.628 88.9307 18.892 88.9307 19.228C88.9307 19.868 88.7787 20.364 88.4747 20.716C87.8187 21.532 87.1227 22.22 86.3867 22.78C85.6507 23.34 84.9387 23.62 84.2507 23.62C83.7227 23.62 83.2347 23.444 82.7867 23.092C82.3547 22.724 82.0267 22.228 81.8027 21.604C80.9707 22.948 79.9227 23.62 78.6587 23.62ZM79.5227 21.196C79.8747 21.196 80.2107 20.988 80.5307 20.572C80.8507 20.156 81.0827 19.604 81.2267 18.916L82.1147 14.5C81.4427 14.516 80.8187 14.772 80.2427 15.268C79.6827 15.748 79.2347 16.388 78.8987 17.188C78.5627 17.988 78.3947 18.836 78.3947 19.732C78.3947 20.228 78.4907 20.596 78.6827 20.836C78.8907 21.076 79.1707 21.196 79.5227 21.196ZM88.6841 23.62C88.0761 23.62 87.6441 23.3 87.3881 22.66C87.1481 22.02 87.0281 20.996 87.0281 19.588C87.0281 17.508 87.3241 15.532 87.9161 13.66C88.0601 13.196 88.2921 12.86 88.6121 12.652C88.9481 12.428 89.4121 12.316 90.0041 12.316C90.3241 12.316 90.5481 12.356 90.6761 12.436C90.8041 12.516 90.8681 12.668 90.8681 12.892C90.8681 13.148 90.7481 13.724 90.5081 14.62C90.3481 15.26 90.2201 15.82 90.1241 16.3C90.0281 16.764 89.9481 17.348 89.8841 18.052C90.3161 16.804 90.8281 15.748 91.4201 14.884C92.0281 14.02 92.6441 13.38 93.2681 12.964C93.9081 12.532 94.5081 12.316 95.0681 12.316C95.6281 12.316 96.0201 12.444 96.2441 12.7C96.4841 12.956 96.6041 13.348 96.6041 13.876C96.6041 14.388 96.4521 15.316 96.1481 16.66C96.0201 17.236 95.9321 17.668 95.8841 17.956C96.6841 15.988 97.5721 14.556 98.5481 13.66C99.5241 12.764 100.436 12.316 101.284 12.316C102.324 12.316 102.844 12.836 102.844 13.876C102.844 14.5 102.668 15.628 102.316 17.26C102.012 18.652 101.86 19.572 101.86 20.02C101.86 20.66 102.092 20.98 102.556 20.98C102.876 20.98 103.252 20.788 103.684 20.404C104.132 20.004 104.724 19.364 105.46 18.484C105.652 18.26 105.868 18.148 106.108 18.148C106.316 18.148 106.476 18.244 106.588 18.436C106.716 18.628 106.78 18.892 106.78 19.228C106.78 19.868 106.628 20.364 106.324 20.716C105.636 21.564 104.892 22.26 104.092 22.804C103.308 23.348 102.412 23.62 101.404 23.62C100.588 23.62 99.9721 23.388 99.5561 22.924C99.1401 22.444 98.9321 21.756 98.9321 20.86C98.9321 20.412 99.0441 19.612 99.2681 18.46C99.4761 17.452 99.5801 16.756 99.5801 16.372C99.5801 16.116 99.4921 15.988 99.3161 15.988C99.1081 15.988 98.8121 16.26 98.4281 16.804C98.0441 17.332 97.6601 18.036 97.2761 18.916C96.8921 19.796 96.5801 20.724 96.3401 21.7C96.1641 22.468 95.9561 22.98 95.7161 23.236C95.4921 23.492 95.1241 23.62 94.6121 23.62C94.0841 23.62 93.6841 23.372 93.4121 22.876C93.1561 22.364 93.0281 21.748 93.0281 21.028C93.0281 20.42 93.1081 19.54 93.2681 18.388C93.3961 17.364 93.4601 16.692 93.4601 16.372C93.4601 16.116 93.3721 15.988 93.1961 15.988C92.9561 15.988 92.6521 16.276 92.2841 16.852C91.9161 17.428 91.5561 18.164 91.2041 19.06C90.8681 19.956 90.5961 20.836 90.3881 21.7C90.2121 22.452 90.0041 22.964 89.7641 23.236C89.5401 23.492 89.1801 23.62 88.6841 23.62ZM117.608 16.132C117.816 16.132 117.976 16.236 118.088 16.444C118.2 16.652 118.256 16.916 118.256 17.236C118.256 17.636 118.2 17.948 118.088 18.172C117.976 18.38 117.8 18.524 117.56 18.604C116.6 18.94 115.544 19.132 114.392 19.18C114.072 20.508 113.464 21.58 112.568 22.396C111.688 23.212 110.712 23.62 109.64 23.62C108.024 23.62 106.848 23.004 106.112 21.772C105.376 20.54 105.008 18.756 105.008 16.42C105.008 14.356 105.264 12.116 105.776 9.7C106.288 7.268 107.032 5.204 108.008 3.508C109 1.796 110.176 0.939999 111.536 0.939999C112.272 0.939999 112.864 1.26 113.312 1.9C113.76 2.524 113.984 3.34 113.984 4.348C113.984 5.66 113.736 6.964 113.24 8.26C112.744 9.556 111.92 10.916 110.768 12.34C111.84 12.42 112.712 12.868 113.384 13.684C114.056 14.484 114.456 15.476 114.584 16.66C115.336 16.612 116.232 16.452 117.272 16.18C117.368 16.148 117.48 16.132 117.608 16.132ZM110.984 3.316C110.664 3.316 110.312 3.796 109.928 4.756C109.56 5.7 109.216 6.988 108.896 8.62C108.576 10.252 108.336 12.036 108.176 13.972C109.232 12.036 110.072 10.332 110.696 8.86C111.336 7.372 111.656 6.052 111.656 4.9C111.656 4.388 111.592 3.996 111.464 3.724C111.352 3.452 111.192 3.316 110.984 3.316ZM109.736 21.076C110.232 21.076 110.672 20.868 111.056 20.452C111.44 20.036 111.696 19.436 111.824 18.652C111.328 18.316 110.944 17.876 110.672 17.332C110.416 16.788 110.288 16.212 110.288 15.604C110.288 15.38 110.32 15.076 110.384 14.692H110.312C109.656 14.692 109.104 15.02 108.656 15.676C108.224 16.316 108.008 17.18 108.008 18.268C108.008 19.18 108.176 19.876 108.512 20.356C108.864 20.836 109.272 21.076 109.736 21.076ZM126.887 18.148C127.095 18.148 127.255 18.244 127.367 18.436C127.495 18.628 127.559 18.892 127.559 19.228C127.559 19.868 127.407 20.364 127.103 20.716C126.511 21.436 125.671 22.1 124.583 22.708C123.511 23.316 122.359 23.62 121.127 23.62C119.447 23.62 118.143 23.164 117.215 22.252C116.287 21.34 115.823 20.092 115.823 18.508C115.823 17.404 116.055 16.38 116.519 15.436C116.983 14.476 117.623 13.716 118.439 13.156C119.271 12.596 120.207 12.316 121.247 12.316C122.175 12.316 122.919 12.596 123.479 13.156C124.039 13.7 124.319 14.444 124.319 15.388C124.319 16.492 123.919 17.444 123.119 18.244C122.335 19.028 120.999 19.652 119.111 20.116C119.511 20.852 120.271 21.22 121.391 21.22C122.111 21.22 122.927 20.972 123.839 20.476C124.767 19.964 125.567 19.3 126.239 18.484C126.431 18.26 126.647 18.148 126.887 18.148ZM120.839 14.668C120.247 14.668 119.743 15.012 119.327 15.7C118.927 16.388 118.727 17.22 118.727 18.196V18.244C119.671 18.02 120.415 17.684 120.959 17.236C121.503 16.788 121.775 16.268 121.775 15.676C121.775 15.372 121.687 15.132 121.511 14.956C121.351 14.764 121.127 14.668 120.839 14.668ZM127.309 23.62C126.701 23.62 126.269 23.3 126.013 22.66C125.773 22.02 125.653 20.996 125.653 19.588C125.653 17.508 125.949 15.532 126.541 13.66C126.685 13.196 126.917 12.86 127.237 12.652C127.573 12.428 128.037 12.316 128.629 12.316C128.949 12.316 129.173 12.356 129.301 12.436C129.429 12.516 129.493 12.668 129.493 12.892C129.493 13.148 129.373 13.724 129.133 14.62C128.973 15.26 128.845 15.82 128.749 16.3C128.653 16.78 128.573 17.372 128.509 18.076C129.037 16.7 129.629 15.58 130.285 14.716C130.941 13.852 131.581 13.236 132.205 12.868C132.845 12.5 133.429 12.316 133.957 12.316C134.997 12.316 135.517 12.836 135.517 13.876C135.517 14.084 135.445 14.588 135.301 15.388C135.173 16.028 135.109 16.428 135.109 16.588C135.109 17.148 135.309 17.428 135.709 17.428C136.157 17.428 136.733 17.076 137.437 16.372C137.645 16.164 137.861 16.06 138.085 16.06C138.293 16.06 138.453 16.156 138.565 16.348C138.693 16.524 138.757 16.764 138.757 17.068C138.757 17.66 138.597 18.124 138.277 18.46C137.829 18.924 137.301 19.324 136.693 19.66C136.101 19.98 135.469 20.14 134.797 20.14C133.949 20.14 133.301 19.924 132.853 19.492C132.421 19.06 132.205 18.476 132.205 17.74C132.205 17.5 132.229 17.26 132.277 17.02C132.309 16.7 132.325 16.484 132.325 16.372C132.325 16.116 132.237 15.988 132.061 15.988C131.821 15.988 131.501 16.26 131.101 16.804C130.717 17.332 130.333 18.036 129.949 18.916C129.565 19.796 129.253 20.724 129.013 21.7C128.837 22.452 128.629 22.964 128.389 23.236C128.165 23.492 127.805 23.62 127.309 23.62ZM139.671 10.732C138.999 10.732 138.495 10.58 138.159 10.276C137.823 9.956 137.655 9.516 137.655 8.956C137.655 8.396 137.871 7.932 138.303 7.564C138.751 7.18 139.303 6.988 139.959 6.988C140.551 6.988 141.031 7.132 141.399 7.42C141.767 7.708 141.951 8.116 141.951 8.644C141.951 9.284 141.743 9.796 141.327 10.18C140.911 10.548 140.359 10.732 139.671 10.732ZM139.479 23.62C138.439 23.62 137.679 23.252 137.199 22.516C136.735 21.78 136.503 20.804 136.503 19.588C136.503 18.868 136.591 17.948 136.767 16.828C136.959 15.692 137.199 14.636 137.487 13.66C137.631 13.148 137.823 12.796 138.063 12.604C138.303 12.412 138.687 12.316 139.215 12.316C140.031 12.316 140.439 12.588 140.439 13.132C140.439 13.532 140.287 14.46 139.983 15.916C139.599 17.676 139.407 18.868 139.407 19.492C139.407 19.972 139.471 20.34 139.599 20.596C139.727 20.852 139.943 20.98 140.247 20.98C140.535 20.98 140.895 20.78 141.327 20.38C141.759 19.98 142.335 19.348 143.055 18.484C143.247 18.26 143.463 18.148 143.703 18.148C143.911 18.148 144.071 18.244 144.183 18.436C144.311 18.628 144.375 18.892 144.375 19.228C144.375 19.868 144.223 20.364 143.919 20.716C142.335 22.652 140.855 23.62 139.479 23.62ZM156.065 18.148C156.273 18.148 156.433 18.244 156.545 18.436C156.673 18.628 156.737 18.892 156.737 19.228C156.737 19.868 156.585 20.364 156.281 20.716C155.625 21.516 154.905 22.204 154.121 22.78C153.337 23.34 152.561 23.62 151.793 23.62C150.577 23.62 149.649 22.908 149.009 21.484C148.337 22.332 147.745 22.9 147.233 23.188C146.737 23.476 146.153 23.62 145.481 23.62C144.505 23.62 143.697 23.26 143.057 22.54C142.433 21.804 142.121 20.852 142.121 19.684C142.121 18.404 142.393 17.22 142.937 16.132C143.481 15.028 144.225 14.132 145.169 13.444C146.129 12.74 147.201 12.324 148.385 12.196C148.689 9.092 149.265 6.444 150.113 4.252C150.977 2.044 152.105 0.939999 153.497 0.939999C154.185 0.939999 154.753 1.252 155.201 1.876C155.665 2.5 155.897 3.444 155.897 4.708C155.897 6.5 155.457 8.596 154.577 10.996C153.697 13.396 152.521 15.86 151.049 18.388C151.113 19.316 151.249 19.98 151.457 20.38C151.681 20.78 151.961 20.98 152.297 20.98C152.729 20.98 153.169 20.788 153.617 20.404C154.065 20.02 154.665 19.38 155.417 18.484C155.609 18.26 155.825 18.148 156.065 18.148ZM153.233 3.292C152.929 3.292 152.625 3.836 152.321 4.924C152.017 5.996 151.753 7.404 151.529 9.148C151.321 10.892 151.169 12.716 151.073 14.62C152.865 10.716 153.761 7.58 153.761 5.212C153.761 4.604 153.705 4.132 153.593 3.796C153.497 3.46 153.377 3.292 153.233 3.292ZM146.321 21.196C146.625 21.196 146.929 21.076 147.233 20.836C147.537 20.58 147.921 20.116 148.385 19.444C148.225 18.58 148.145 17.612 148.145 16.54C148.145 16.156 148.161 15.532 148.193 14.668C147.313 14.94 146.577 15.532 145.985 16.444C145.409 17.34 145.121 18.34 145.121 19.444C145.121 20.612 145.521 21.196 146.321 21.196ZM166.761 18.148C166.969 18.148 167.129 18.244 167.241 18.436C167.369 18.628 167.433 18.892 167.433 19.228C167.433 19.82 167.281 20.316 166.977 20.716C166.225 21.692 165.289 22.46 164.169 23.02C163.065 23.58 161.817 23.86 160.425 23.86C159.337 23.86 158.393 23.7 157.593 23.38C156.793 23.044 156.177 22.596 155.745 22.036C155.329 21.46 155.121 20.82 155.121 20.116C155.121 19.06 155.545 18.124 156.393 17.308C157.241 16.492 158.457 15.708 160.041 14.956L156.105 15.052C155.753 15.068 155.481 14.948 155.289 14.692C155.113 14.42 155.025 14.1 155.025 13.732C155.025 13.348 155.113 13.012 155.289 12.724C155.481 12.42 155.737 12.268 156.057 12.268C156.793 12.268 157.777 12.324 159.009 12.436C159.265 12.452 159.729 12.484 160.401 12.532C161.089 12.58 161.665 12.604 162.129 12.604C162.289 12.604 162.593 12.54 163.041 12.412C163.121 12.396 163.273 12.356 163.497 12.292C163.737 12.228 163.937 12.196 164.097 12.196C164.353 12.196 164.561 12.308 164.721 12.532C164.897 12.756 164.985 13.1 164.985 13.564C164.985 14.076 164.865 14.476 164.625 14.764C164.385 15.052 164.009 15.308 163.497 15.532C162.041 16.156 160.833 16.828 159.873 17.548C158.913 18.252 158.433 18.956 158.433 19.66C158.433 20.108 158.641 20.476 159.057 20.764C159.473 21.052 160.089 21.196 160.905 21.196C161.801 21.196 162.705 20.972 163.617 20.524C164.545 20.076 165.377 19.396 166.113 18.484C166.305 18.26 166.521 18.148 166.761 18.148ZM174.064 18.868C174.272 18.868 174.432 18.964 174.544 19.156C174.672 19.348 174.736 19.612 174.736 19.948C174.736 20.524 174.6 21.02 174.328 21.436C173.88 22.124 173.288 22.66 172.552 23.044C171.832 23.428 170.968 23.62 169.96 23.62C168.424 23.62 167.232 23.164 166.384 22.252C165.536 21.324 165.112 20.076 165.112 18.508C165.112 17.404 165.344 16.38 165.808 15.436C166.272 14.476 166.912 13.716 167.728 13.156C168.56 12.596 169.496 12.316 170.536 12.316C171.464 12.316 172.208 12.596 172.768 13.156C173.328 13.7 173.608 14.444 173.608 15.388C173.608 16.492 173.208 17.444 172.408 18.244C171.624 19.028 170.28 19.652 168.376 20.116C168.76 20.852 169.408 21.22 170.32 21.22C170.976 21.22 171.512 21.068 171.928 20.764C172.36 20.46 172.856 19.948 173.416 19.228C173.608 18.988 173.824 18.868 174.064 18.868ZM170.128 14.668C169.536 14.668 169.032 15.012 168.616 15.7C168.216 16.388 168.016 17.22 168.016 18.196V18.244C168.96 18.02 169.704 17.684 170.248 17.236C170.792 16.788 171.064 16.268 171.064 15.676C171.064 15.372 170.976 15.132 170.8 14.956C170.64 14.764 170.416 14.668 170.128 14.668Z" fill="#1F1F1F"/>
</svg>
