<svg width="57" height="19" viewBox="0 0 57 19" fill="none" xmlns="http://www.w3.org/2000/svg">
<path d="M16.3889 4.63733C16.3889 5.86733 15.3311 6.88733 14.0555 6.88733C13.5725 6.88479 13.1019 6.73967 12.707 6.47151C12.3121 6.20334 12.0119 5.82498 11.8466 5.38733H5.49998V14.3873H11.8466C12.1578 13.5173 13.0289 12.8873 14.0555 12.8873C15.3311 12.8873 16.3889 13.9073 16.3889 15.1373V15.8873C16.3889 17.5373 14.9889 18.8873 13.2778 18.8873H3.94442C2.23331 18.8873 0.833313 17.5373 0.833313 15.8873V3.88733C0.833313 2.23733 2.23331 0.887329 3.94442 0.887329H13.2778C14.9889 0.887329 16.3889 2.23733 16.3889 3.88733V4.63733ZM32.0689 5.38733C32.38 6.25733 33.2511 6.88733 34.2778 6.88733C35.5533 6.88733 36.6111 5.86733 36.6111 4.63733V3.88733C36.6111 2.23733 35.2111 0.887329 33.5 0.887329H24.1666C22.4555 0.887329 21.0555 2.23733 21.0555 3.88733V8.38733C21.0555 10.0373 22.4555 11.3873 24.1666 11.3873H31.9444V14.3873H25.5978C25.4364 13.9473 25.1371 13.5665 24.7413 13.2977C24.3456 13.0289 23.8729 12.8855 23.3889 12.8873C22.1133 12.8873 21.0555 13.9073 21.0555 15.1373V15.8873C21.0555 17.5373 22.4555 18.8873 24.1666 18.8873H33.5C35.2111 18.8873 36.6111 17.5373 36.6111 15.8873V11.3873C36.6111 9.73733 35.2111 8.38733 33.5 8.38733H25.7222V5.38733H32.0689ZM52.2911 5.38733C52.6022 6.25733 53.4733 6.88733 54.5 6.88733C55.7755 6.88733 56.8333 5.86733 56.8333 4.63733V3.88733C56.8333 2.23733 55.4333 0.887329 53.7222 0.887329H44.3889C42.6778 0.887329 41.2778 2.23733 41.2778 3.88733V8.38733C41.2778 10.0373 42.6778 11.3873 44.3889 11.3873H52.1666V14.3873H45.82C45.6586 13.9473 45.3593 13.5665 44.9636 13.2977C44.5678 13.0289 44.0951 12.8855 43.6111 12.8873C42.3355 12.8873 41.2778 13.9073 41.2778 15.1373V15.8873C41.2778 17.5373 42.6778 18.8873 44.3889 18.8873H53.7222C55.4333 18.8873 56.8333 17.5373 56.8333 15.8873V11.3873C56.8333 9.73733 55.4333 8.38733 53.7222 8.38733H45.9444V5.38733H52.2911Z" fill="#9D9F98"/>
</svg>
