<svg width="57" height="22" viewBox="0 0 57 22" fill="none" xmlns="http://www.w3.org/2000/svg">
<path d="M44.9426 0.182039C43.1366 0.182039 41.48 2.15897 41.48 6.95385C41.48 9.88102 42.3363 11.8306 43.909 12.415L45.673 13.0867C46.303 13.3379 46.625 13.8458 46.625 14.8507C46.625 16.5764 45.5983 17.1279 45.0383 17.1279C44.028 17.1279 43.3256 16.205 42.5883 14.6431L40.9713 17.1006C42.124 20.0497 43.3513 21.1419 44.7886 21.1419C46.3706 21.1419 48.6713 20.0333 48.6713 14.0697C48.6713 10.2797 47.2783 9.04546 45.5913 8.40651L44.7793 8.09523C43.972 7.7894 43.5986 7.26514 43.5986 6.21114C43.5986 4.92777 44.315 4.20689 44.8026 4.20689C45.694 4.20689 46.5176 5.12437 47.0753 6.7081L48.6806 3.99937C47.7263 1.52001 46.3473 0.182039 44.9426 0.182039ZM53.0953 0.182039C51.287 0.182039 49.6326 2.15897 49.6326 6.95385C49.6326 9.88102 50.489 11.8306 52.0593 12.415L53.821 13.0867C54.451 13.3379 54.773 13.8458 54.773 14.8507C54.773 16.5764 53.7533 17.1279 53.191 17.1279C52.1806 17.1279 51.476 16.205 50.741 14.6431L49.1216 17.1006C50.2743 20.0497 51.5016 21.1419 52.9413 21.1419C54.521 21.1419 56.8193 20.0333 56.8193 14.0697C56.8193 10.2797 55.4286 9.04546 53.7393 8.40651L52.932 8.09523C52.12 7.7894 51.7513 7.26514 51.7513 6.21114C51.7513 4.92777 52.4676 4.20689 52.9553 4.20689C53.8466 4.20689 54.6656 5.12437 55.2233 6.7081L56.8333 3.99937C56.3583 2.78863 55.7804 1.82363 55.1367 1.16625C54.4929 0.508876 53.7976 0.173639 53.0953 0.182039ZM0.833313 0.749998V20.5849H7.42265V16.7347H2.95665V12.0546H6.79731V8.21537H2.95431V4.58917H7.07265V0.749998H0.833313ZM8.49831 0.749998L11.2983 9.90833L8.03398 20.5849H10.596L12.6026 13.1741L14.5556 20.5849H17.1456L13.9 9.90833L16.686 0.749998H14.1496L12.6143 6.79547L11.0696 0.749998H8.49831ZM17.8036 0.749998V20.5849H19.9456V14.1735H21.6C24.5026 14.1735 25.1303 10.1049 25.1303 7.45627C25.1303 3.52425 24.2903 0.749998 22.0036 0.749998H17.8036ZM25.7043 0.749998V20.5849H27.823V13.4526H29.1693L30.8306 20.5849H33.2013L31.26 12.617C32.3193 11.8962 33.01 9.83187 33.01 7.26513C33.01 2.80885 31.8456 0.749998 29.944 0.749998H25.7043ZM33.8523 0.749998V20.5849H40.4416V16.7347H35.9663V12.0546H39.8116V8.21537H35.9663V4.58917H40.087V0.749998H33.8523ZM19.9176 4.41988H21.6443C22.6126 4.41988 23.0116 5.51211 23.0116 7.48904C23.0116 9.01816 22.6686 10.4927 21.705 10.4927H19.9176V4.41988ZM27.823 4.41988H29.7596C30.4386 4.44719 30.8913 5.25544 30.8913 7.09584C30.8913 8.93624 30.4386 9.73903 29.7596 9.7718H27.823V4.41988Z" fill="#9D9F98"/>
</svg>
