<svg width="57" height="57" viewBox="0 0 57 57" fill="none" xmlns="http://www.w3.org/2000/svg">
<path fill-rule="evenodd" clip-rule="evenodd" d="M21.0563 22.6349C20.2649 22.6349 19.4811 22.7908 18.7499 23.0937C18.0187 23.3966 17.3543 23.8406 16.7946 24.4002C16.2349 24.9599 15.791 25.6243 15.4881 26.3555C15.1852 27.0867 15.0293 27.8705 15.0293 28.6619C15.0293 29.4534 15.1852 30.2371 15.4881 30.9684C15.791 31.6996 16.2349 32.364 16.7946 32.9237C17.3543 33.4833 18.0187 33.9273 18.7499 34.2302C19.4811 34.5331 20.2649 34.6889 21.0563 34.6889H27.0833V22.6349H21.0563ZM27.0833 19.1349H21.0563C19.4576 19.1349 17.9243 18.4998 16.7938 17.3693C15.6633 16.2388 15.0282 14.7055 15.0282 13.1068C15.0282 11.508 15.6633 9.97472 16.7938 8.84422C17.9243 7.71372 19.4576 7.07861 21.0563 7.07861H27.0833V19.1349ZM30.5833 7.07861V19.1349H36.6103C38.1886 19.1039 39.6917 18.4551 40.7968 17.328C41.902 16.2009 42.5211 14.6853 42.5211 13.1068C42.5211 11.5282 41.902 10.0127 40.7968 8.88554C39.6917 7.75842 38.1886 7.10967 36.6103 7.07861H30.5833ZM36.6103 22.6326C35.0283 22.6324 33.5096 23.2542 32.3821 24.3639C31.2545 25.4736 30.6084 26.9821 30.5833 28.5639V28.7576C30.6026 29.9453 30.9725 31.1008 31.6464 32.0789C32.3202 33.0571 33.2681 33.8143 34.371 34.2555C35.4738 34.6967 36.6825 34.8021 37.8451 34.5586C39.0077 34.3151 40.0724 33.7335 40.9055 32.8868C41.7386 32.0402 42.303 30.9662 42.5277 29.7998C42.7524 28.6335 42.6275 27.4267 42.1686 26.3311C41.7097 25.2355 40.9372 24.3 39.9483 23.6419C38.9594 22.9839 37.7981 22.6328 36.6103 22.6326ZM21.0563 38.1889C19.8637 38.1885 18.6978 38.5417 17.706 39.2039C16.7141 39.8662 15.941 40.8077 15.4843 41.9093C15.0276 43.011 14.9078 44.2234 15.1402 45.3931C15.3726 46.5628 15.9467 47.6374 16.7898 48.4808C17.6329 49.3243 18.7072 49.8988 19.8769 50.1316C21.0465 50.3644 22.2589 50.2452 23.3608 49.7889C24.4626 49.3326 25.4044 48.5598 26.067 47.5682C26.7297 46.5767 27.0833 45.4109 27.0833 44.2183V38.1889H21.0563Z" fill="#9D9F98"/>
</svg>
