<svg width="16" height="16" viewBox="0 0 16 16" fill="none" xmlns="http://www.w3.org/2000/svg">
<path d="M6.75906 4.94973H4.28125C3.03125 4.62191 0.203438 4.70723 0.203438 7.28691C0.203438 8.22723 0.672187 8.88785 1.29719 9.19316C0.512812 9.91191 0.140938 10.251 0.140938 10.731C0.140938 11.0747 0.280625 11.3916 0.7 11.5688C0.254062 11.9879 0 12.2922 0 12.8641C0 13.8675 0.876562 14.4522 3.17594 14.4522C5.38687 14.4522 6.66937 13.6266 6.66937 12.1654C6.66937 10.3322 5.25813 10.3997 1.93094 10.1966L2.35063 9.52316C3.20281 9.76004 6.06 9.83566 6.06 7.4016C6.06 6.81723 5.81844 6.41066 5.59125 6.11816L6.76031 6.02941L6.75906 4.94973ZM4.77719 12.5091C4.77719 13.511 1.49937 13.5122 1.49937 12.585C1.49937 12.3307 1.66406 12.1163 1.82969 11.9119C4.25812 12.0775 4.77719 12.0172 4.77719 12.5091ZM3.18937 8.30348C1.53937 8.30348 1.6125 6.07973 3.22688 6.07973C4.775 6.07973 4.815 8.30348 3.18937 8.30348ZM7.355 11.4444V10.4413C8.19094 10.3269 8.20625 10.3788 8.20625 10.0975V6.36285C8.20625 6.09723 8.14219 6.13223 7.355 5.85473L7.49469 4.82598H10.125V10.0982C10.125 10.3016 10.1375 10.3269 10.3284 10.3525L10.9762 10.4413V11.4444H7.355ZM8.99406 3.80973C8.27 3.80973 7.85063 3.39004 7.85063 2.66566C7.85063 1.94129 8.27 1.54785 8.99406 1.54785C9.73094 1.54785 10.1503 1.94223 10.1503 2.66566C10.1503 3.3891 9.73094 3.80973 8.99406 3.80973ZM16 10.9519C15.4534 11.2185 14.6531 11.46 13.9288 11.46C12.4169 11.46 11.8453 10.8507 11.8453 9.41441V6.08598C11.8453 5.9166 11.8781 5.9591 10.8544 5.9591V4.82816C11.9725 4.70098 12.4169 4.14066 12.5566 2.75723H13.7638C13.7638 4.81441 13.7219 4.68879 13.8656 4.68879H15.6562V5.9591H13.7638V8.99504C13.7638 9.21129 13.61 10.6016 15.6566 9.83379L16 10.9519Z" fill="#9AA196"/>
</svg>
