<svg width="57" height="57" viewBox="0 0 57 57" fill="none" xmlns="http://www.w3.org/2000/svg">
<path d="M10.6666 9.19983L12.5501 30.3296H36.7679L35.9553 39.3924L28.1577 41.5007L20.3748 39.3954L19.8544 33.5762H12.841L13.844 44.794L28.1562 48.7691L42.4865 44.794L44.4078 23.3431H18.9407L18.3012 16.1878H45.0408L45.6667 9.19983H10.6666Z" fill="#9D9F98"/>
<path d="M28.1667 9.19983H10.6666L12.5501 30.3296H28.1667V23.3431H18.9407L18.3012 16.1878H28.1667V9.19983ZM28.1667 41.4976L28.1577 41.5007L20.3748 39.3954L19.8544 33.5762H12.841L13.844 44.794L28.1562 48.7691L28.1669 48.766L28.1667 41.4976Z" fill="#9D9F98"/>
</svg>
