<svg width="57" height="31" viewBox="0 0 57 31" fill="none" xmlns="http://www.w3.org/2000/svg">
<path d="M8.13636 30.8873C6.01515 30.8873 4.21297 30.159 2.72982 28.7023C1.24667 27.2456 0.503394 25.474 0.5 23.3873V18.3873H8.13636V23.3873H15.7727V0.887329H23.4091V23.3873C23.4091 25.4706 22.6675 27.2423 21.1844 28.7023C19.7012 30.1623 17.8973 30.8906 15.7727 30.8873H8.13636ZM36.1363 30.8873C34.6939 30.8873 33.4857 30.4073 32.5116 29.4473C31.5376 28.4873 31.0488 27.3006 31.0454 25.8873V20.8873H38.6818V23.3873H48.8636V18.3873H36.1363C34.6939 18.3873 33.4857 17.9073 32.5116 16.9473C31.5376 15.9873 31.0488 14.8007 31.0454 13.3873V5.88733C31.0454 4.47066 31.5342 3.28399 32.5116 2.32733C33.4891 1.37066 34.6973 0.890662 36.1363 0.887329H51.4091C52.8515 0.887329 54.0614 1.36733 55.0389 2.32733C56.0163 3.28733 56.5034 4.47399 56.5 5.88733V10.8873H48.8636V8.38732H38.6818V13.3873H51.4091C52.8515 13.3873 54.0614 13.8673 55.0389 14.8273C56.0163 15.7873 56.5034 16.974 56.5 18.3873V25.8873C56.5 27.304 56.0112 28.4923 55.0338 29.4523C54.0563 30.4123 52.8481 30.8906 51.4091 30.8873H36.1363Z" fill="#9D9F98"/>
</svg>
