<svg width="16" height="16" viewBox="0 0 16 16" fill="none" xmlns="http://www.w3.org/2000/svg">
<g clip-path="url(#clip0_12210_249)">
<path d="M15.5161 7.87754C15.5161 6.91604 14.7876 6.10691 13.8096 5.87604L16 0.0141602H5.14501L7.34038 5.89454C6.39313 6.14404 5.69488 6.93904 5.69488 7.88241C5.69488 8.57566 6.07713 9.19041 6.65776 9.56941C6.42876 9.86529 6.16363 10.1382 5.86326 10.3969C5.29788 10.8779 4.67088 11.2475 3.99363 11.4927C3.38238 11.1182 3.11763 10.457 3.35688 9.86516C4.28901 9.60641 4.96688 8.81591 4.96688 7.88679C4.96688 6.74516 3.94288 5.82029 2.68938 5.82029C1.43113 5.82029 0.407756 6.74954 0.407756 7.89154C0.407756 8.45566 0.662131 8.97316 1.06988 9.34278C1.03413 9.40778 0.998631 9.47216 0.962881 9.54154C0.621631 10.1798 0.234381 10.9009 0.0863807 11.71C-0.208994 13.3277 0.274881 14.627 1.44138 15.3619C2.09863 15.7735 2.82226 15.9815 3.60163 15.9815C4.94088 15.9815 6.30126 15.3712 7.61526 14.7793C8.55276 14.3589 9.52051 13.9194 10.4731 13.707C10.8248 13.6284 11.1914 13.582 11.5786 13.5313C12.3628 13.4297 13.1729 13.3233 13.9014 12.9395C14.752 12.4913 15.3326 11.7422 15.501 10.8824C15.6279 10.2212 15.501 9.55566 15.1748 8.97316C15.3976 8.65131 15.5168 8.269 15.5161 7.87754ZM14.523 7.87754C14.523 8.52004 13.9473 9.04253 13.2393 9.04253C12.5313 9.04253 11.9555 8.52004 11.9555 7.87754C11.9555 7.66941 12.0166 7.47079 12.1235 7.29979C12.1641 7.23479 12.2154 7.17041 12.266 7.11479C12.3197 7.05756 12.3795 7.00646 12.4444 6.96241L12.4498 6.95754C12.4903 6.92979 12.5361 6.90191 12.582 6.87454C12.582 6.87454 12.587 6.87454 12.587 6.86966C12.6074 6.86041 12.6279 6.84666 12.6485 6.83741C12.6534 6.83741 12.6583 6.83254 12.6635 6.83254C12.6841 6.82379 12.7095 6.81454 12.7348 6.80516C12.7589 6.79672 12.7827 6.78747 12.8061 6.77741C12.8111 6.77741 12.8164 6.77241 12.8213 6.77241C12.8418 6.76816 12.8623 6.75879 12.8824 6.75441C12.8878 6.75441 12.898 6.74954 12.9029 6.74954C12.9283 6.74516 12.9488 6.74029 12.9741 6.73579H12.9795L13.0558 6.72166C13.061 6.72166 13.0708 6.72166 13.0761 6.71729C13.0966 6.71729 13.1168 6.71241 13.1373 6.71241H13.1626C13.188 6.71241 13.2139 6.70804 13.2441 6.70804H13.3105C13.3305 6.70804 13.3463 6.70804 13.3663 6.71241H13.3765C13.4175 6.71741 13.458 6.72166 13.499 6.73104C14.0796 6.84179 14.523 7.31354 14.523 7.87754ZM6.56588 0.938535H14.5786L12.7398 5.86191C12.6635 5.87604 12.5869 5.89891 12.5108 5.92191L10.5753 2.33941L8.63426 5.89879C8.55763 5.87591 8.47613 5.86179 8.39501 5.84804L6.56588 0.938535ZM10.208 7.47504C10.1114 7.04041 9.86676 6.65229 9.52051 6.36566L10.5753 4.43354L11.6396 6.40716C11.3238 6.69379 11.0946 7.05904 11.0029 7.47504H10.208ZM7.65626 6.74504C7.68163 6.74004 7.70213 6.73579 7.72751 6.73091H7.74263C7.76313 6.72654 7.78376 6.72654 7.80376 6.72154H7.82426C7.84476 6.72154 7.85988 6.71716 7.88038 6.71716H8.07913C8.09913 6.71716 8.11476 6.72154 8.12988 6.72154C8.13864 6.72075 8.14744 6.72249 8.15526 6.72654C8.17576 6.73091 8.19088 6.73091 8.21151 6.73579C8.21626 6.73579 8.22163 6.73579 8.23188 6.74016C8.25738 6.74504 8.28276 6.74941 8.30313 6.75429H8.30813C8.32863 6.75866 8.34913 6.76304 8.36913 6.77241C8.37451 6.77241 8.37938 6.77729 8.38963 6.77729C8.40476 6.78166 8.42526 6.78654 8.44038 6.79579C8.44576 6.79579 8.45063 6.80016 8.45601 6.80016C8.47601 6.80954 8.49663 6.81441 8.51713 6.82366H8.52201C8.54738 6.83241 8.56788 6.84166 8.58838 6.85591H8.59338C8.61376 6.86516 8.63426 6.87879 8.65476 6.88804C8.65976 6.88804 8.65976 6.89304 8.66451 6.89304C8.68501 6.90179 8.70026 6.91591 8.72076 6.92516L8.72613 6.92954C8.78713 6.97116 8.84326 7.01754 8.89888 7.06391L8.90426 7.06829C8.95513 7.11904 9.00588 7.17466 9.04688 7.23479C9.17926 7.41979 9.25588 7.63716 9.25588 7.87291C9.25588 8.51554 8.68013 9.03754 7.97213 9.03754C7.26413 9.03754 6.68838 8.51554 6.68838 7.87291C6.68313 7.33191 7.09576 6.87441 7.65626 6.74504ZM2.64351 6.71229C3.35163 6.71229 3.92726 7.23479 3.92726 7.87729C3.92726 8.51979 3.35163 9.04228 2.64351 9.04228C1.93538 9.04228 1.35976 8.51991 1.35976 7.87729C1.35976 7.23479 1.93551 6.71229 2.64351 6.71229ZM14.4923 10.7207C14.3804 11.3119 13.9775 11.83 13.3868 12.1395C12.8315 12.431 12.1489 12.5233 11.4306 12.6157C11.0386 12.6664 10.626 12.722 10.2285 12.8099C9.16901 13.0458 8.15038 13.5082 7.16213 13.9515C5.89888 14.5204 4.70651 15.0565 3.60163 15.0565C3.02588 15.0565 2.51126 14.9087 2.02251 14.599C0.901881 13.8964 0.957506 12.579 1.09038 11.8578C1.21238 11.1825 1.55376 10.5493 1.87988 9.94379C1.89988 9.90666 1.91551 9.87441 1.93551 9.83729C2.04784 9.87445 2.16505 9.90228 2.28713 9.92078C2.09376 10.9008 2.64351 11.913 3.71338 12.4125L3.90713 12.5048L4.11576 12.4354C5.00738 12.1488 5.83251 11.682 6.56101 11.0579C6.97363 10.7064 7.32526 10.3275 7.62063 9.91591C7.73776 9.93454 7.85501 9.93941 7.97213 9.93941C9.03176 9.93941 9.92288 9.27816 10.1778 8.39054H11.0333C11.2881 9.28266 12.1796 9.93929 13.2393 9.93929C13.6621 9.93929 14.0543 9.83304 14.3901 9.65279C14.523 9.99941 14.5635 10.3598 14.4923 10.7207Z" fill="#99A295"/>
</g>
<defs>
<clipPath id="clip0_12210_249">
<rect width="16" height="16" fill="white"/>
</clipPath>
</defs>
</svg>
