<svg width="57" height="36" viewBox="0 0 57 36" fill="none" xmlns="http://www.w3.org/2000/svg">
<path fill-rule="evenodd" clip-rule="evenodd" d="M12.1956 11.284C12.2938 11.3419 12.3753 11.4252 12.4319 11.5256C12.4884 11.626 12.518 11.7398 12.5176 11.8555L12.5064 20.3368C12.5064 20.454 12.4448 20.5654 12.3468 20.6226C12.298 20.6534 12.2418 20.6698 12.1844 20.6698C12.127 20.6698 12.0708 20.6534 12.022 20.6226L8.8384 18.7594C8.73964 18.7019 8.65757 18.6187 8.60052 18.5183C8.54347 18.418 8.51348 18.304 8.5136 18.1879V14.2245C8.51372 14.1084 8.48373 13.9944 8.42668 13.894C8.36963 13.7936 8.28756 13.7105 8.1888 13.653L6.8336 12.8557C6.73537 12.7975 6.62379 12.7668 6.5102 12.7668C6.39661 12.7668 6.28503 12.7975 6.1868 12.8557L4.8288 13.6558C4.73056 13.7137 4.64905 13.797 4.59251 13.8974C4.53596 13.9977 4.5064 14.1116 4.5068 14.2273V18.1879C4.50692 18.304 4.47693 18.418 4.41988 18.5183C4.36283 18.6187 4.28076 18.7019 4.182 18.7594L0.9928 20.6254C0.944671 20.6552 0.889473 20.6709 0.8332 20.6709C0.776927 20.6709 0.721729 20.6552 0.6736 20.6254C0.623212 20.5979 0.581334 20.5565 0.552653 20.5061C0.523971 20.4556 0.509618 20.398 0.5112 20.3397L0.5 11.8584C0.5 11.6212 0.6232 11.4012 0.8248 11.284L6.184 8.13499C6.27231 8.07913 6.37411 8.04945 6.478 8.04926H6.534C6.63885 8.04892 6.74168 8.07862 6.8308 8.13499L12.1956 11.284ZM37.7372 16.4162C37.7619 16.4017 37.7826 16.3809 37.7973 16.3559C37.812 16.3309 37.8203 16.3025 37.8212 16.2733V14.1016C37.8212 14.0444 37.7876 13.9873 37.7372 13.9587L35.8948 12.8728C35.8699 12.8588 35.842 12.8515 35.8136 12.8515C35.7852 12.8515 35.7573 12.8588 35.7324 12.8728L33.8928 13.9587C33.8686 13.9736 33.8484 13.9945 33.8342 14.0195C33.82 14.0445 33.8122 14.0727 33.8116 14.1016V16.2733C33.8116 16.3305 33.8424 16.3876 33.8956 16.4162L35.7352 17.5021C35.7856 17.5307 35.8472 17.5307 35.8976 17.5021L37.7372 16.4162ZM37.9948 0.205239C38.0439 0.177287 38.0992 0.162377 38.1554 0.161878C38.2117 0.161379 38.2672 0.175305 38.3168 0.20238L41.5088 2.01979C41.6099 2.07668 41.6942 2.16027 41.7529 2.26183C41.8115 2.36338 41.8423 2.47916 41.842 2.59702V18.3479C41.8421 18.464 41.8121 18.578 41.7551 18.6784C41.698 18.7788 41.616 18.8619 41.5172 18.9195L36.1524 22.0828C36.0542 22.141 35.9426 22.1717 35.829 22.1717C35.7154 22.1717 35.6038 22.141 35.5056 22.0828L30.1408 18.9223C30.042 18.8648 29.96 18.7816 29.9029 18.6812C29.8459 18.5808 29.8159 18.4668 29.816 18.3508V12.0299C29.8159 11.9138 29.8459 11.7998 29.9029 11.6994C29.96 11.599 30.042 11.5159 30.1408 11.4583L35.5056 8.29787C35.6038 8.23965 35.7154 8.20899 35.829 8.20899C35.9426 8.20899 36.0542 8.23965 36.1524 8.29787L37.4964 9.08942C37.5308 9.10936 37.5697 9.11977 37.6093 9.11961C37.6489 9.11945 37.6877 9.10872 37.722 9.0885C37.7562 9.06828 37.7847 9.03926 37.8046 9.00433C37.8244 8.9694 37.835 8.92977 37.8352 8.88939V0.485279C37.8362 0.427814 37.8513 0.37153 37.8792 0.321597C37.9071 0.271665 37.9469 0.229687 37.9948 0.199523M56.5 13.4758C56.5004 13.5915 56.4708 13.7054 56.4143 13.8057C56.3577 13.9061 56.2762 13.9894 56.178 14.0473L52.9608 15.9533C52.9111 15.9813 52.8552 15.996 52.7984 15.996C52.7416 15.996 52.6857 15.9813 52.636 15.9533C52.5875 15.9235 52.5472 15.8816 52.5189 15.8317C52.4905 15.7817 52.4749 15.7253 52.4736 15.6675V14.1102C52.4726 14.0527 52.4574 13.9964 52.4296 13.9465C52.4017 13.8965 52.3619 13.8546 52.314 13.8244L50.634 12.8357C50.5852 12.8048 50.529 12.7884 50.4716 12.7884C50.4142 12.7884 50.358 12.8048 50.3092 12.8357L48.6292 13.8244C48.5813 13.8546 48.5415 13.8965 48.5136 13.9465C48.4857 13.9964 48.4706 14.0527 48.4696 14.1102V16.0933C48.4696 16.2076 48.5312 16.3219 48.632 16.3791L54.0276 19.5367C54.0777 19.5656 54.1194 19.6075 54.1484 19.6582C54.1774 19.7089 54.1926 19.7666 54.1926 19.8253C54.1926 19.884 54.1774 19.9417 54.1484 19.9924C54.1194 20.0431 54.0777 20.085 54.0276 20.1139L50.802 21.9428C50.7046 21.998 50.5949 22.0265 50.4835 22.0255C50.3721 22.0245 50.2628 21.994 50.1664 21.937L44.838 18.8366C44.7392 18.7791 44.6572 18.6959 44.6001 18.5955C44.5431 18.4951 44.5131 18.3811 44.5132 18.2651V11.9441C44.5128 11.8284 44.5424 11.7145 44.5989 11.6142C44.6554 11.5138 44.737 11.4305 44.8352 11.3726L50.2 8.215C50.2982 8.15678 50.4098 8.12612 50.5234 8.12612C50.637 8.12612 50.7486 8.15678 50.8468 8.215L56.178 11.3726C56.2762 11.4305 56.3577 11.5138 56.4143 11.6142C56.4708 11.7145 56.5004 11.8284 56.5 11.9441V13.4758ZM28.178 35.1619C27.9918 35.1601 27.8089 35.111 27.646 35.019L25.9604 33.996C25.7084 33.8531 25.8316 33.8017 25.9128 33.7731C26.1811 33.6881 26.4379 33.569 26.6772 33.4187C26.7183 33.3997 26.7603 33.4026 26.8032 33.4273L28.0996 34.2132C28.1472 34.2389 28.2116 34.2389 28.2564 34.2132L33.3132 31.2327C33.3365 31.2177 33.3559 31.1971 33.3695 31.1727C33.3832 31.1483 33.3908 31.1208 33.3916 31.0927V25.1375C33.3916 25.0804 33.3636 25.0232 33.3132 24.9946L28.2592 22.0199C28.235 22.0069 28.2081 22.0001 28.1808 22.0001C28.1535 22.0001 28.1266 22.0069 28.1024 22.0199L23.0484 24.9946C23.0242 25.0096 23.004 25.0305 22.9898 25.0554C22.9756 25.0804 22.9678 25.1087 22.9672 25.1375V31.0898C22.9672 31.147 22.998 31.2013 23.0456 31.227L24.4316 32.0443C25.182 32.4272 25.6412 31.9757 25.6412 31.5213V25.6433C25.6412 25.5576 25.7084 25.4947 25.7896 25.4947H26.4308C26.5092 25.4947 26.5764 25.5576 26.5764 25.6433V31.5242C26.5764 32.5472 26.0276 33.133 25.0784 33.133C24.7844 33.133 24.5548 33.133 23.9108 32.8101L22.5864 32.03C22.4243 31.9344 22.2897 31.797 22.1963 31.6314C22.1029 31.4658 22.0539 31.278 22.0544 31.087V25.1347C22.0539 24.9436 22.1029 24.7558 22.1963 24.5902C22.2897 24.4247 22.4243 24.2872 22.5864 24.1917L27.6488 21.2112C27.8122 21.1212 27.9951 21.074 28.1808 21.074C28.3665 21.074 28.5494 21.1212 28.7128 21.2112L33.7668 24.1945C33.9285 24.2898 34.0628 24.4268 34.1562 24.5919C34.2496 24.7569 34.2988 24.9441 34.2988 25.1347V31.0898C34.2992 31.2809 34.2503 31.4687 34.1569 31.6342C34.0635 31.7998 33.9289 31.9373 33.7668 32.0328L28.71 35.0104C28.5473 35.1034 28.3645 35.1535 28.178 35.1561M29.7404 31.0527C27.5284 31.0527 27.0636 30.0154 27.0636 29.1467C27.0636 29.061 27.1308 28.9981 27.212 28.9981H27.8644C27.8993 28.9971 27.9332 29.0095 27.9597 29.0327C27.9861 29.056 28.003 29.0885 28.0072 29.1238C28.108 29.8039 28.3992 30.1468 29.7376 30.1468C30.8044 30.1468 31.258 29.8982 31.258 29.3239C31.258 28.9895 31.1292 28.7438 29.4716 28.5809C28.0884 28.438 27.2316 28.1265 27.2316 26.9978C27.2316 25.9576 28.094 25.3347 29.536 25.3347C31.1544 25.3347 31.9552 25.9091 32.056 27.1407C32.058 27.1614 32.0556 27.1822 32.0492 27.2019C32.0428 27.2216 32.0324 27.2398 32.0186 27.2551C32.0049 27.2705 31.9882 27.2827 31.9696 27.291C31.9509 27.2994 31.9308 27.3036 31.9104 27.3036H31.2524C31.2196 27.3042 31.1877 27.2932 31.1621 27.2723C31.1365 27.2514 31.1189 27.222 31.1124 27.1893C30.9528 26.4749 30.572 26.2463 29.5332 26.2463C28.3684 26.2463 28.234 26.6577 28.234 26.9692C28.234 27.3464 28.3936 27.455 29.9616 27.6665C31.5184 27.8779 32.2576 28.1751 32.2576 29.2896C32.2576 30.4126 31.3336 31.0584 29.7348 31.0584L29.7404 31.0527ZM35.8948 24.7403H36.0628C36.2028 24.7403 36.2308 24.6432 36.2308 24.5832C36.2308 24.4317 36.1272 24.4317 36.0684 24.4317H35.8948V24.7403ZM35.6876 24.2545H36.0628C36.1916 24.2545 36.4464 24.2545 36.4464 24.5489C36.4464 24.7517 36.3176 24.7946 36.2392 24.8203C36.3876 24.8318 36.3988 24.9289 36.4184 25.0632V25.0747L36.4212 25.0861C36.4324 25.1747 36.4492 25.3204 36.4772 25.3718H36.2448L36.242 25.3347L36.2028 25.0204C36.1888 24.9546 36.1664 24.9232 36.0908 24.9232H35.8976V25.3718H35.6876V24.2545ZM37.026 24.8089C37.0266 25.0064 36.9696 25.1996 36.8625 25.364C36.7553 25.5285 36.6027 25.6567 36.424 25.7326C36.2454 25.8084 36.0487 25.8284 35.8588 25.79C35.669 25.7516 35.4946 25.6566 35.3578 25.5169C35.221 25.3773 35.1279 25.1993 35.0902 25.0056C35.0526 24.8119 35.0722 24.6111 35.1465 24.4288C35.2208 24.2464 35.3465 24.0907 35.5076 23.9813C35.6688 23.872 35.8581 23.8139 36.0516 23.8145C36.578 23.8145 37.026 24.2488 37.026 24.8118M50.4436 13.7473C50.4622 13.7344 50.4841 13.7275 50.5066 13.7275C50.5291 13.7275 50.551 13.7344 50.5696 13.7473L51.5972 14.3531C51.6158 14.3652 51.6313 14.3815 51.6425 14.4009C51.6537 14.4203 51.6602 14.4421 51.6616 14.4645V15.6761C51.6597 15.7237 51.6383 15.7599 51.5972 15.7847L50.5696 16.3934C50.551 16.4063 50.5291 16.4132 50.5066 16.4132C50.4841 16.4132 50.4622 16.4063 50.4436 16.3934L49.416 15.7847C49.3965 15.7747 49.3802 15.7591 49.3693 15.7398C49.3583 15.7205 49.3532 15.6984 49.3544 15.6761V14.4645C49.3544 14.4169 49.3749 14.3797 49.416 14.3531L50.4436 13.7473ZM21.626 8.38931C21.5248 8.3307 21.4105 8.29988 21.2942 8.29988C21.1779 8.29988 21.0635 8.3307 20.9624 8.38931L15.452 11.6327C15.3516 11.6931 15.2684 11.7792 15.2105 11.8824C15.1526 11.9856 15.1219 12.1024 15.1216 12.2213V18.7166C15.1216 18.9566 15.2504 19.1823 15.4576 19.3024L20.9624 22.5486C21.0635 22.6072 21.1779 22.638 21.2942 22.638C21.4105 22.638 21.5248 22.6072 21.626 22.5486L27.1308 19.3024C27.2313 19.2425 27.3148 19.1571 27.3732 19.0544C27.4316 18.9517 27.4629 18.8353 27.464 18.7166V12.2213C27.4634 12.1021 27.4323 11.9851 27.3739 11.8819C27.3155 11.7787 27.2317 11.6928 27.1308 11.6327L21.626 8.38931Z" fill="#9D9F98"/>
</svg>
