<svg width="57" height="57" viewBox="0 0 57 57" fill="none" xmlns="http://www.w3.org/2000/svg">
<path d="M9.84032 37.3605C9.60852 36.993 9.48396 36.568 9.48066 36.1335C9.47736 35.699 9.59546 35.2722 9.82165 34.9012L27.2726 6.43688C27.4928 6.07854 27.806 5.78665 28.179 5.59232C28.552 5.398 28.9707 5.30852 29.3905 5.33343C29.8103 5.35833 30.2155 5.49669 30.5629 5.73375C30.9102 5.97081 31.1868 6.29769 31.363 6.67954L47.3043 41.2595C47.4432 41.5615 47.5157 41.8898 47.5169 42.2222C47.5182 42.5545 47.4481 42.8833 47.3114 43.1863C47.1747 43.4893 46.9746 43.7594 46.7247 43.9785C46.4747 44.1976 46.1806 44.3605 45.8623 44.4562L21.0636 51.8995C20.5784 52.0451 20.0589 52.0282 19.5842 51.8513C19.1095 51.6744 18.7056 51.3472 18.434 50.9195L9.84032 37.3605ZM29.2863 14.7599L23.1496 45.3219C23.1201 45.469 23.1291 45.6213 23.1758 45.764C23.2224 45.9066 23.3052 46.0348 23.4161 46.136C23.5269 46.2372 23.662 46.308 23.8083 46.3416C23.9546 46.3752 24.1071 46.3703 24.251 46.3275L41.3846 41.2129C41.5027 41.1778 41.6119 41.1181 41.7052 41.0377C41.7985 40.9573 41.8736 40.858 41.9256 40.7464C41.9777 40.6348 42.0055 40.5135 42.0071 40.3904C42.0088 40.2672 41.9843 40.1452 41.9353 40.0322L30.9406 14.5872C30.8682 14.4151 30.7423 14.2709 30.5817 14.1759C30.421 14.0808 30.234 14.0399 30.0483 14.0593C29.8626 14.0787 29.6881 14.1572 29.5504 14.2834C29.4128 14.4095 29.3217 14.5766 29.2863 14.7599Z" fill="#9D9F98"/>
</svg>
