<svg width="57" height="57" viewBox="0 0 57 57" fill="none" xmlns="http://www.w3.org/2000/svg">
<path d="M28.1667 24.2519C30.57 24.2519 32.53 26.2119 32.53 28.6619C32.53 30.9952 30.57 32.9786 28.1667 32.9786C25.7633 32.9786 23.8033 30.9952 23.8033 28.6619C23.8033 26.2119 25.7633 24.2519 28.1667 24.2519ZM17.3633 47.3286C18.8333 48.2152 22.0533 46.8619 25.7633 43.3619C24.55 41.9852 23.36 40.4919 22.24 38.9286C20.3599 38.7473 18.4906 38.4669 16.64 38.0886C15.45 43.0819 15.8933 46.5119 17.3633 47.3286ZM19.02 33.9352L18.3433 32.7452C18.0867 33.4219 17.83 34.0986 17.6667 34.7519C18.2967 34.8919 18.9967 35.0086 19.72 35.1252L19.02 33.9352ZM34.28 32.1619L36.17 28.6619L34.28 25.1619C33.58 23.9252 32.8333 22.8286 32.1567 21.7319C30.8967 21.6619 29.5667 21.6619 28.1667 21.6619C26.7667 21.6619 25.4367 21.6619 24.1767 21.7319C23.5 22.8286 22.7533 23.9252 22.0533 25.1619L20.1633 28.6619L22.0533 32.1619C22.7533 33.3986 23.5 34.4952 24.1767 35.5919C25.4367 35.6619 26.7667 35.6619 28.1667 35.6619C29.5667 35.6619 30.8967 35.6619 32.1567 35.5919C32.8333 34.4952 33.58 33.3986 34.28 32.1619ZM28.1667 16.4819C27.7233 16.9952 27.2567 17.5319 26.79 18.1619H29.5433C29.0767 17.5319 28.61 16.9952 28.1667 16.4819ZM28.1667 40.8419C28.61 40.3286 29.0767 39.7919 29.5433 39.1619H26.79C27.2567 39.7919 27.7233 40.3286 28.1667 40.8419ZM38.9467 9.99524C37.5 9.10858 34.28 10.4619 30.57 13.9619C31.7833 15.3386 32.9733 16.8319 34.0933 18.3952C36.0067 18.5819 37.8967 18.8619 39.6933 19.2352C40.8833 14.2419 40.44 10.8119 38.9467 9.99524ZM37.3133 23.3886L37.99 24.5786C38.2467 23.9019 38.5033 23.2252 38.6667 22.5719C38.0367 22.4319 37.3367 22.3152 36.6133 22.1986L37.3133 23.3886ZM40.6967 6.93858C44.1267 8.89858 44.5 14.0552 43.0533 20.0752C48.98 21.8252 53.25 24.7186 53.25 28.6619C53.25 32.6052 48.98 35.4986 43.0533 37.2486C44.5 43.2686 44.1267 48.4252 40.6967 50.3852C37.29 52.3452 32.6467 50.1052 28.1667 45.8352C23.6867 50.1052 19.0433 52.3452 15.6133 50.3852C12.2067 48.4252 11.8333 43.2686 13.28 37.2486C7.35333 35.4986 3.08333 32.6052 3.08333 28.6619C3.08333 24.7186 7.35333 21.8252 13.28 20.0752C11.8333 14.0552 12.2067 8.89858 15.6133 6.93858C19.0433 4.97858 23.6867 7.21858 28.1667 11.4886C32.6467 7.21858 37.29 4.97858 40.6967 6.93858ZM40.02 28.6619C40.8133 30.4119 41.5133 32.1619 42.0967 33.9352C46.9967 32.4652 49.75 30.3652 49.75 28.6619C49.75 26.9586 46.9967 24.8586 42.0967 23.3886C41.5133 25.1619 40.8133 26.9119 40.02 28.6619ZM16.3133 28.6619C15.52 26.9119 14.82 25.1619 14.2367 23.3886C9.33667 24.8586 6.58333 26.9586 6.58333 28.6619C6.58333 30.3652 9.33667 32.4652 14.2367 33.9352C14.82 32.1619 15.52 30.4119 16.3133 28.6619ZM37.3133 33.9352L36.6133 35.1252C37.3367 35.0086 38.0367 34.8919 38.6667 34.7519C38.5033 34.0986 38.2467 33.4219 37.99 32.7452L37.3133 33.9352ZM30.57 43.3619C34.28 46.8619 37.5 48.2152 38.9467 47.3286C40.44 46.5119 40.8833 43.0819 39.6933 38.0886C37.8967 38.4619 36.0067 38.7419 34.0933 38.9286C32.9733 40.4919 31.7833 41.9852 30.57 43.3619ZM19.02 23.3886L19.72 22.1986C18.9967 22.3152 18.2967 22.4319 17.6667 22.5719C17.83 23.2252 18.0867 23.9019 18.3433 24.5786L19.02 23.3886ZM25.7633 13.9619C22.0533 10.4619 18.8333 9.10858 17.3633 9.99524C15.8933 10.8119 15.45 14.2419 16.64 19.2352C18.4906 18.8569 20.3599 18.5765 22.24 18.3952C23.36 16.8319 24.55 15.3386 25.7633 13.9619Z" fill="#9D9F98"/>
</svg>
