<svg width="57" height="52" viewBox="0 0 57 52" fill="none" xmlns="http://www.w3.org/2000/svg">
<path d="M27.2443 38.944C27.1918 39.0587 27.2181 39.0077 27.2443 38.944V38.944ZM49.0434 29.701C47.2836 29.7003 45.5471 30.191 43.9684 31.1352C43.4521 29.871 42.9184 28.7661 42.8309 27.9374C42.7259 26.9706 42.6121 26.3969 42.7346 25.2495C42.8571 24.1021 43.4084 22.4766 43.3996 22.3597C43.3909 22.2428 43.2771 21.6585 42.1484 21.6479C41.0196 21.6373 40.0483 21.9135 39.9355 22.2747C39.7362 22.9349 39.5811 23.6135 39.4717 24.3039C39.2704 25.547 37.215 29.9878 36.0513 32.3039C35.6663 31.4009 35.3425 30.604 35.2725 29.9666C35.1675 28.9998 35.0538 28.4261 35.1763 27.2787C35.2988 26.1313 35.85 24.5058 35.8413 24.3889C35.8325 24.2721 35.7188 23.6877 34.5909 23.6771C33.463 23.6665 32.4909 23.9427 32.3771 24.3039C32.2634 24.6651 32.1409 25.5151 31.9134 26.3331C31.6859 27.1512 28.948 34.5456 28.2313 36.4686C27.8638 37.446 27.5488 38.2322 27.3213 38.7634C27.2863 38.8484 27.2601 38.9015 27.2426 38.944C27.2688 38.8909 27.2863 38.8377 27.2863 38.859C27.0938 39.3158 26.9801 39.5708 26.9801 39.5708V39.5814C26.8313 39.9214 26.6651 40.2295 26.5863 40.2295C26.5338 40.2295 26.42 39.3371 26.6126 38.1153C27.0238 35.5443 27.9951 31.5496 27.9863 31.4115C27.9776 31.3371 28.1701 30.6465 27.3476 30.2747C26.5513 29.9241 26.2625 30.5084 26.1925 30.5084C26.1225 30.5084 26.07 30.7209 26.07 30.7209C26.07 30.7209 26.9538 26.2163 24.3734 26.2163C22.7634 26.2163 20.5234 28.3623 19.4226 30.3066C18.7313 30.7634 17.2351 31.7514 15.66 32.8032C15.0563 33.207 14.435 33.6213 13.8488 34.0144C13.805 33.9613 13.77 33.9081 13.7263 33.855C10.5946 29.7966 4.81255 26.9281 5.05755 21.4779C5.14505 19.4912 5.71381 14.2747 16.1763 7.94276C24.7514 2.75819 31.6071 4.18182 32.7875 7.34781C34.485 11.8631 29.1221 20.2668 20.2171 21.4779C16.8229 21.9347 15.0388 20.3411 14.5925 19.7462C14.1288 19.1194 14.0588 19.0875 13.8838 19.2043C13.595 19.3956 13.7788 19.948 13.8838 20.2774C14.1463 21.1167 15.24 22.6041 17.1029 23.3478C18.7392 23.9958 22.7188 24.357 27.5304 22.0941C32.9362 19.5656 37.1442 12.5218 35.9104 6.62537C34.6539 0.633358 26.4708 -1.33211 18.7331 2.00387C14.1227 3.99058 9.13685 7.11408 5.55018 11.1831C1.28976 16.0277 0.608124 20.2455 0.888127 22.0091C1.88476 28.2667 8.9881 32.3464 11.831 35.3637C11.691 35.4593 11.5598 35.5443 11.4373 35.6293C10.0119 36.4898 4.59642 39.932 3.24103 43.5655C1.70976 47.6876 3.49478 50.6412 4.66642 51.0449C8.32309 52.2773 12.0673 50.0568 14.0789 46.4128C16.0906 42.7687 15.8464 38.0091 14.9189 35.8417C14.9102 35.8099 14.8927 35.7886 14.8839 35.7567C15.2514 35.4911 15.6277 35.2255 16.0039 34.9599C16.7293 34.4394 17.4381 33.9613 18.0593 33.5469C17.7093 34.6943 17.4556 36.0755 17.3243 38.0728C17.1668 40.4101 17.9631 43.438 18.9956 44.6279C19.4506 45.1485 20.001 45.1591 20.3422 45.1591C21.5497 45.1591 22.0922 43.948 22.6951 42.5031C23.4389 40.7395 24.0951 38.689 24.0951 38.689C24.0951 38.689 23.2726 44.2348 25.5214 44.2348C26.343 44.2348 27.1656 42.9493 27.5339 42.2906V42.3012C27.5339 42.3012 27.5514 42.2587 27.5952 42.1737C27.6827 42.0144 27.7264 41.9187 27.7264 41.9187V41.8869C28.0589 41.1963 28.7852 39.6133 29.8781 36.9998C31.2956 33.6213 32.651 29.4035 32.651 29.4035C32.7819 30.3307 32.9631 31.2464 33.1935 32.1445C33.4385 33.1538 33.9548 34.2587 34.366 35.3318C34.0335 35.8842 33.8323 36.203 33.8323 36.203C33.8328 36.2111 33.8359 36.2188 33.841 36.2242C33.5785 36.6492 33.281 37.106 32.9748 37.5522C31.8556 39.1671 30.5247 41.0157 30.3497 41.5469C30.1397 42.1737 30.1922 42.6412 30.5947 43.0024C30.8922 43.2786 31.4172 43.3211 31.9676 43.268C32.9739 43.183 33.6826 42.8855 34.0239 42.6943C34.653 42.4204 35.2476 42.0414 35.7905 41.5681C36.8843 40.5907 37.5493 39.1883 37.4881 37.3397C37.4531 36.3198 37.1818 35.2999 36.8493 34.3437C36.9455 34.1737 37.0505 33.9931 37.1468 33.8125C38.8784 30.7422 40.2172 27.3722 40.2172 27.3722C40.3481 28.2994 40.5294 29.215 40.7597 30.1132C40.9697 30.9738 41.3801 31.9193 41.7564 32.8436C40.1297 34.4479 39.1234 36.3071 38.7734 37.5289C38.1259 39.7918 38.6334 40.8117 39.5872 41.0454C40.016 41.1517 40.6285 40.9073 41.0835 40.6736C41.7592 40.4002 42.3963 40.0025 42.9726 39.4943C44.0664 38.5169 45.1243 37.1464 45.0543 35.2872C45.028 34.4479 44.8355 33.6085 44.5818 32.8011C45.9555 32.0999 47.7397 31.7174 50.0147 32.0362C54.8868 32.7267 55.8405 36.4239 55.6568 37.9644C55.473 39.5049 54.4492 40.3655 54.108 40.6205C53.7667 40.8755 53.6617 40.9711 53.688 41.1623C53.7317 41.4385 53.8892 41.4279 54.178 41.3642C54.5805 41.2792 56.7322 40.1105 56.8284 37.2526C56.9684 33.6404 54.108 29.667 49.0408 29.6989L49.0434 29.701ZM11.4898 45.0741C9.88061 47.2096 7.62308 48.017 6.65269 47.3371C5.61143 46.6019 6.02269 43.4592 8.00808 41.1836C9.2156 39.8024 10.7722 38.5275 11.8048 37.7413C12.041 37.5713 12.3823 37.3164 12.8023 37.0083C12.8723 36.9551 12.9073 36.9339 12.9073 36.9339C12.986 36.8702 13.0735 36.817 13.161 36.7533C13.8864 39.983 13.1873 42.8303 11.4898 45.072V45.0741ZM23.2464 35.3637C22.6864 37.0316 21.506 41.2813 20.7885 41.0582C20.176 40.867 19.7997 37.6266 20.666 34.4394C21.1035 32.8351 22.031 30.9228 22.5823 30.1791C23.4651 28.9785 24.4364 28.5961 24.6639 29.0742C24.9702 29.701 23.5964 34.3225 23.2464 35.3637ZM32.959 40.9944C32.7227 41.1432 32.504 41.2388 32.399 41.1644C32.3202 41.1113 32.4952 40.9095 32.4952 40.9095C32.4952 40.9095 33.7115 39.3265 34.1928 38.604C34.4728 38.179 34.7965 37.6797 35.1457 37.1273C35.1457 37.1804 35.1544 37.2335 35.1544 37.2972C35.143 39.199 33.6389 40.4845 32.9564 40.9944H32.959ZM40.4473 38.9227C40.2723 38.774 40.2986 38.2747 40.8848 36.7235C41.1123 36.118 41.6365 35.098 42.5474 34.1206C42.6504 34.4906 42.7065 34.8775 42.7136 35.268C42.7049 37.6585 41.2961 38.5509 40.4482 38.9227H40.4473Z" fill="#9D9F98"/>
</svg>
