<svg width="57" height="55" viewBox="0 0 57 55" fill="none" xmlns="http://www.w3.org/2000/svg">
<path fill-rule="evenodd" clip-rule="evenodd" d="M51.7483 42.4274C48.7019 42.3444 46.3387 42.6515 44.3563 43.476C43.7879 43.7029 42.8723 43.7029 42.7967 44.4112C43.1047 44.71 43.1383 45.1969 43.4071 45.6091C43.8635 46.3562 44.6643 47.366 45.3867 47.8889L47.8227 49.6098C49.3095 50.509 50.9867 51.0319 52.4343 51.9283C53.2715 52.454 54.1087 53.1263 54.9487 53.688C55.3743 53.9868 55.6319 54.4737 56.1667 54.6619V54.5484C55.9007 54.2109 55.8223 53.7267 55.5591 53.3504L54.4139 52.2659C53.298 50.8129 51.9615 49.539 50.4519 48.4893C49.2339 47.6648 46.5683 46.5443 46.0727 45.1609L45.9971 45.0779C46.8343 44.9949 47.8255 44.7017 48.6263 44.4776C49.9227 44.1428 51.1015 44.2147 52.4343 43.8799L54.2627 43.3543V43.0223C53.5767 42.3472 53.0811 41.448 52.3587 40.8144C50.3872 39.1221 48.2855 37.5838 46.0727 36.2134C44.8911 35.4664 43.3679 34.9766 42.1107 34.3431C41.6515 34.119 40.8927 34.0055 40.6267 33.632C39.938 32.8103 39.56 31.723 39.0644 30.7519L35.9396 24.2418C35.2536 22.7837 34.8336 21.3256 33.9964 19.981C30.0764 13.6176 25.8064 9.76628 19.2544 5.98694C17.846 5.20119 16.1716 4.86365 14.388 4.45418L11.5321 4.30201C10.9217 4.04193 10.3113 3.33089 9.77927 2.99335C7.60928 1.64596 2.0093 -1.27017 0.407704 2.57557C-0.622692 5.00475 1.9309 7.39797 2.7989 8.63469C3.44569 9.49238 4.28289 10.4663 4.74209 11.4401C4.99689 12.0765 5.08369 12.7488 5.34969 13.4211C5.96008 15.0673 6.53128 16.9017 7.33208 18.4344C7.75768 19.2202 8.20567 20.0446 8.74047 20.7557C9.04567 21.1735 9.58047 21.3533 9.69247 22.0284C9.16047 22.7754 9.12127 23.8959 8.81607 24.8338C7.44408 29.0614 7.97608 34.296 9.92207 37.4086C10.5325 38.3437 11.9689 40.4022 13.9205 39.6164C15.6368 38.9414 15.2532 36.811 15.7488 34.9407C15.8636 34.4925 15.788 34.1937 16.0148 33.8921V33.9751L17.5772 37.0821C18.7588 38.9137 20.8168 40.8227 22.5304 42.0954C23.4432 42.7677 24.1656 43.927 25.308 44.3365V44.2258H25.2352C25.0056 43.891 24.6612 43.7388 24.356 43.4788C23.6353 42.7844 22.9733 42.0331 22.3764 41.2322C20.7662 39.0844 19.3398 36.8078 18.112 34.4261C17.5016 33.264 16.9668 31.9941 16.474 30.8349C16.2416 30.3867 16.2416 29.7116 15.8636 29.4875C15.2896 30.3092 14.4552 31.023 14.0325 32.0329C13.3101 33.6376 13.2345 35.6213 12.9685 37.6797C12.8145 37.7185 12.8845 37.6797 12.8145 37.7627C11.5965 37.4667 11.1765 36.23 10.7201 35.1841C9.57767 32.5281 9.38727 28.2646 10.3757 25.1963C10.6445 24.4105 11.7869 21.9399 11.3305 21.1928C11.1009 20.4818 10.3393 20.0723 9.91927 19.5107C9.38976 18.7555 8.93055 17.9545 8.54727 17.1175C7.63728 15.0203 7.17808 12.7018 6.18688 10.6074C5.73048 9.63348 4.92969 8.62363 4.28289 7.72721C3.55769 6.71735 2.75969 6.00631 2.1885 4.80832C1.9981 4.39054 1.7321 3.72376 2.0373 3.27555C2.1101 2.97675 2.2641 2.85501 2.5693 2.78861C3.06209 2.37084 4.47329 2.89928 4.96889 3.12338C6.37728 3.68503 7.55888 4.20794 8.74047 4.99369C9.27247 5.36719 9.84367 6.07824 10.5325 6.26638H11.3305C12.5513 6.52922 13.9205 6.34938 15.0628 6.68692C17.0788 7.32327 18.91 8.25565 20.5508 9.26827C25.5903 12.4155 29.6917 16.831 32.434 22.0616C32.8904 22.922 33.078 23.7078 33.498 24.607C34.3016 26.4385 35.29 28.3088 36.0908 30.1044C36.8916 31.8641 37.6532 33.6597 38.7956 35.1177C39.3667 35.9035 41.6515 36.3157 42.6791 36.728C43.4407 37.06 44.6223 37.3643 45.3111 37.7738C46.6019 38.5595 47.8983 39.4587 49.1163 40.3192C49.7239 40.7674 51.6307 41.7025 51.7455 42.4496L51.7483 42.4274ZM12.9013 9.92122C12.3754 9.91789 11.8513 9.98112 11.3417 10.1094V10.1924H11.4173C11.7225 10.79 12.2573 11.2022 12.6353 11.7279L13.5117 13.5235L13.5873 13.4405C14.1193 13.0642 14.388 12.4666 14.388 11.5702C14.1584 11.3073 14.122 11.0445 13.9317 10.7844C13.7021 10.4109 13.2065 10.2228 12.9013 9.92398" fill="#9D9F98"/>
</svg>
