<svg width="57" height="35" viewBox="0 0 57 35" fill="none" xmlns="http://www.w3.org/2000/svg">
<path d="M28.5 0.887329C21.024 0.887329 16.376 4.65566 14.5 12.2207C17.3 8.45233 20.576 7.03566 24.3 7.97066C26.428 8.509 27.968 10.0673 29.648 11.7957C32.392 14.629 35.5 17.8873 42.5 17.8873C49.976 17.8873 54.624 14.119 56.5 6.554C53.7 10.3223 50.424 11.739 46.7 10.804C44.572 10.2657 43.06 8.70733 41.352 6.97899C38.608 4.14566 35.5 0.887329 28.5 0.887329ZM14.5 17.8873C7.024 17.8873 2.376 21.6557 0.5 29.2207C3.3 25.4523 6.576 24.0357 10.3 24.9707C12.428 25.509 13.94 27.0673 15.648 28.7957C18.392 31.629 21.5 34.8873 28.5 34.8873C35.976 34.8873 40.624 31.119 42.5 23.554C39.7 27.3223 36.424 28.739 32.7 27.804C30.572 27.2657 29.06 25.7073 27.352 23.979C24.608 21.1457 21.5 17.8873 14.5 17.8873Z" fill="#9D9F98"/>
</svg>
