<svg width="57" height="41" viewBox="0 0 57 41" fill="none" xmlns="http://www.w3.org/2000/svg">
<path d="M37.1009 12.668C37.1009 14.6068 39.231 15.71 44.3155 17.5877C49.3286 19.4373 56.1619 21.9582 56.1619 29.0983V29.1077C56.1509 30.7568 55.7872 32.3852 55.0945 33.8866C54.4153 35.3936 53.4213 36.7427 52.1774 37.8459C50.9335 38.9492 49.4676 39.7819 47.8752 40.2897C46.3026 40.8061 44.6014 40.9938 42.9431 40.8295C42.6045 40.8662 42.2641 40.885 41.9234 40.8859C38.9742 40.8759 36.1335 39.7887 33.9511 37.8345C32.705 36.7343 31.7061 35.3896 31.0184 33.8868C30.3308 32.3839 29.9695 30.7561 29.9578 29.1077C29.9578 28.1594 30.3295 27.2769 31.0062 26.6103C31.6882 25.9716 32.5932 25.6155 33.5342 25.6155C34.4751 25.6155 35.3801 25.9716 36.0621 26.6103C36.7388 27.2722 37.1105 28.1594 37.1105 29.0983C37.1105 33.5673 42.0711 33.7927 43.067 33.7927C44.063 33.7927 49.0236 33.5673 49.0236 29.0983C49.0236 27.1595 46.8935 26.0563 41.809 24.1786C36.796 22.329 29.9626 19.8128 29.9626 12.668C29.9785 10.9874 30.3343 9.39133 31.03 7.87974C31.7162 6.37754 32.7026 5.03965 33.9559 3.93647C35.1962 2.83015 36.6591 1.9936 38.2494 1.48131C39.8393 0.973964 41.5169 0.788735 43.1814 0.936769C44.7706 0.793032 46.3727 0.978522 47.8847 1.48131C50.2738 2.26433 52.3555 3.76185 53.84 5.76529C55.3245 7.76873 56.1378 10.1784 56.1667 12.6586C56.1667 13.6069 55.795 14.4894 55.1183 15.156C54.4363 15.7947 53.5313 16.1508 52.5904 16.1508C51.6494 16.1508 50.7444 15.7947 50.0624 15.156C49.7283 14.831 49.4635 14.4434 49.2835 14.0162C49.1034 13.5889 49.0118 13.1306 49.0141 12.668C49.0141 8.19896 44.0534 7.97363 43.0575 7.97363C42.0616 7.97363 37.1009 8.19896 37.1009 12.668ZM3.74424 0.932075H25.1878C25.8953 0.930438 26.5872 1.13593 27.1758 1.52246C27.7645 1.909 28.2232 2.45913 28.4939 3.10302C28.7645 3.74691 28.8348 4.4555 28.6959 5.13882C28.5569 5.82214 28.2149 6.44937 27.7134 6.94087C27.3835 7.27 26.9901 7.53089 26.5564 7.70824C26.1227 7.88558 25.6574 7.97581 25.1878 7.97363H18.04V37.3134C18.0416 38.0103 17.833 38.692 17.4407 39.2719C17.0483 39.8518 16.4899 40.3037 15.8363 40.5703C15.1826 40.8369 14.4634 40.9062 13.7697 40.7693C13.0761 40.6324 12.4394 40.2955 11.9405 39.8015C11.6064 39.4764 11.3415 39.0889 11.1615 38.6616C10.9815 38.2344 10.8899 37.776 10.8921 37.3134V7.97363H3.74424C3.03682 7.97527 2.34486 7.76977 1.75623 7.38324C1.16759 6.99671 0.708833 6.44657 0.438199 5.80268C0.167565 5.1588 0.0972649 4.45021 0.236225 3.76688C0.375185 3.08356 0.717138 2.45633 1.21866 1.96484C1.54863 1.6357 1.942 1.37481 2.37569 1.19747C2.80939 1.02012 3.27467 0.929891 3.74424 0.932075Z" fill="#9D9F98"/>
</svg>
